<?xml version="1.0" encoding="UTF-8" standalone="no"?>
<!DOCTYPE svg PUBLIC "-//W3C//DTD SVG 1.1//EN"
 "http://www.w3.org/Graphics/SVG/1.1/DTD/svg11.dtd">
<!-- Generated by graphviz version 16.1.0 (0)
 -->
<!-- Title: architecture Pages: 1 -->
<svg width="532pt" height="288pt"
 viewBox="0.00 0.00 532.00 288.00" xmlns="http://www.w3.org/2000/svg" xmlns:xlink="http://www.w3.org/1999/xlink">
<g id="graph0" class="graph" transform="scale(1 1) rotate(0) translate(14.4 273.4)">
<title>architecture</title>
<!-- package -->
<g id="node1" class="node">
<title>package</title>
<polygon fill="#ffffff" stroke="none" points="0,0 0,-259 503,-259 503,0 0,0"/>
<polygon fill="none" stroke="#475569" points="0,0 0,-259 503,-259 503,0 0,0"/>
<polygon fill="#dbeafe" stroke="none" points="1,-208.5 1,-258 502,-258 502,-208.5 1,-208.5"/>
<polygon fill="none" stroke="#475569" points="1,-208.5 1,-258 502,-258 502,-208.5 1,-208.5"/>
<text xml:space="preserve" text-anchor="start" x="205.38" y="-230.7" font-family="sans-serif" font-weight="bold" font-size="14.00">platform&#45;dirs</text>
<polygon fill="none" stroke="#475569" points="1,-159 1,-208.5 502,-208.5 502,-159 1,-159"/>
<text xml:space="preserve" text-anchor="start" x="164.12" y="-178.5" font-family="sans-serif" font-size="14.00">Public API: user_state_dir()</text>
<polygon fill="#f1f5f9" stroke="none" points="1,-87 1,-159 187.75,-159 187.75,-87 1,-87"/>
<polygon fill="none" stroke="#475569" points="1,-87 1,-159 187.75,-159 187.75,-87 1,-87"/>
<text xml:space="preserve" text-anchor="start" x="16" y="-131.7" font-family="sans-serif" font-weight="bold" font-size="14.00">Development override</text>
<text xml:space="preserve" text-anchor="start" x="30.25" y="-117.7" font-family="sans-serif" font-size="14.00">Debug assertions +</text>
<text xml:space="preserve" text-anchor="start" x="25.38" y="-103.7" font-family="sans-serif" font-size="14.00">development feature</text>
<polygon fill="#f1f5f9" stroke="none" points="187.75,-87 187.75,-159 502,-159 502,-87 187.75,-87"/>
<polygon fill="none" stroke="#475569" points="187.75,-87 187.75,-159 502,-159 502,-87 187.75,-87"/>
<text xml:space="preserve" text-anchor="start" x="251.12" y="-124.7" font-family="sans-serif" font-weight="bold" font-size="14.00">Native platform resolution</text>
<text xml:space="preserve" text-anchor="start" x="310" y="-110.7" font-family="sans-serif" font-size="14.00">Otherwise</text>
<polygon fill="none" stroke="#475569" points="1,-1 1,-87 187.75,-87 187.75,-1 1,-1"/>
<text xml:space="preserve" text-anchor="start" x="49" y="-59.7" font-family="sans-serif" font-weight="bold" font-size="14.00">All platforms</text>
<text xml:space="preserve" text-anchor="start" x="35.12" y="-31.7" font-family="sans-serif" font-size="14.00">Working directory</text>
<text xml:space="preserve" text-anchor="start" x="52.38" y="-17.7" font-family="sans-serif" font-size="14.00">+ .local/state</text>
<polygon fill="none" stroke="#475569" points="187.75,-1 187.75,-87 346.75,-87 346.75,-1 187.75,-1"/>
<text xml:space="preserve" text-anchor="start" x="248.12" y="-59.7" font-family="sans-serif" font-weight="bold" font-size="14.00">Linux</text>
<text xml:space="preserve" text-anchor="start" x="202.75" y="-31.7" font-family="sans-serif" font-size="14.00">XDG state directory</text>
<text xml:space="preserve" text-anchor="start" x="212.5" y="-17.7" font-family="sans-serif" font-size="14.00">or home fallback</text>
<polygon fill="none" stroke="#475569" points="346.75,-1 346.75,-87 502,-87 502,-1 346.75,-1"/>
<text xml:space="preserve" text-anchor="start" x="385.38" y="-52.7" font-family="sans-serif" font-weight="bold" font-size="14.00">Other OSes</text>
<text xml:space="preserve" text-anchor="start" x="361.75" y="-24.7" font-family="sans-serif" font-size="14.00">Unsupported error</text>
</g>
</g>
</svg>
