<svg xmlns="http://www.w3.org/2000/svg" width="532pt" height="384" viewBox="0 0 532 288"><g class="graph" transform="translate(14.4 273.4)"><title>architecture</title><g class="node"><title>package</title><path fill="#fff" d="M0 0v-259h503V0z"/><path fill="none" stroke="#475569" d="M0 0v-259h503V0z"/><path fill="#dbeafe" d="M1-208.5V-258h501v49.5z"/><path fill="none" stroke="#475569" d="M1-208.5V-258h501v49.5z"/><text xml:space="preserve" x="205.38" y="-230.7" font-family="sans-serif" font-size="14" font-weight="bold">platform-dirs</text><path fill="none" stroke="#475569" d="M1-159v-49.5h501v49.5z"/><text xml:space="preserve" x="164.12" y="-178.5" font-family="sans-serif" font-size="14">Public API: user_state_dir()</text><path fill="#f1f5f9" d="M1-87v-72h186.75v72z"/><path fill="none" stroke="#475569" d="M1-87v-72h186.75v72z"/><text xml:space="preserve" x="16" y="-131.7" font-family="sans-serif" font-size="14" font-weight="bold">Development override</text><text xml:space="preserve" x="30.25" y="-117.7" font-family="sans-serif" font-size="14">Debug assertions +</text><text xml:space="preserve" x="25.38" y="-103.7" font-family="sans-serif" font-size="14">development feature</text><path fill="#f1f5f9" d="M187.75-87v-72H502v72z"/><path fill="none" stroke="#475569" d="M187.75-87v-72H502v72z"/><text xml:space="preserve" x="251.12" y="-124.7" font-family="sans-serif" font-size="14" font-weight="bold">Native platform resolution</text><text xml:space="preserve" x="310" y="-110.7" font-family="sans-serif" font-size="14">Otherwise</text><path fill="none" stroke="#475569" d="M1-1v-86h186.75v86z"/><text xml:space="preserve" x="49" y="-59.7" font-family="sans-serif" font-size="14" font-weight="bold">All platforms</text><text xml:space="preserve" x="35.12" y="-31.7" font-family="sans-serif" font-size="14">Working directory</text><text xml:space="preserve" x="52.38" y="-17.7" font-family="sans-serif" font-size="14">+ .local/state</text><path fill="none" stroke="#475569" d="M187.75-1v-86h159v86z"/><text xml:space="preserve" x="248.12" y="-59.7" font-family="sans-serif" font-size="14" font-weight="bold">Linux</text><text xml:space="preserve" x="202.75" y="-31.7" font-family="sans-serif" font-size="14">XDG state directory</text><text xml:space="preserve" x="212.5" y="-17.7" font-family="sans-serif" font-size="14">or home fallback</text><path fill="none" stroke="#475569" d="M346.75-1v-86H502v86z"/><text xml:space="preserve" x="385.38" y="-52.7" font-family="sans-serif" font-size="14" font-weight="bold">Other OSes</text><text xml:space="preserve" x="361.75" y="-24.7" font-family="sans-serif" font-size="14">Unsupported error</text></g></g></svg>