<svg xmlns="http://www.w3.org/2000/svg" width="743pt" height="1061pt" viewBox="0 0 743 1061"><g class="graph" transform="translate(21.6 1039.63)"><title>resolution</title><path fill="#fff" d="M-21.6 21.6v-1061.23h743.24V21.6z"/><g class="node"><title>start</title><ellipse cx="271.54" cy="-996.71" fill="#dbeafe" stroke="#475569" rx="71.45" ry="21.32"/><text xml:space="preserve" x="271.54" y="-994.13" font-family="sans-serif" font-size="11" text-anchor="middle">user_state_dir()</text></g><g class="node"><title>select</title><path fill="#dbeafe" stroke="#475569" d="m271.54-934.39-134.79 61.65 134.79 61.65 134.79-61.65z"/><text xml:space="preserve" x="271.54" y="-885.91" font-family="sans-serif" font-size="11" text-anchor="middle">Debug assertions +</text><text xml:space="preserve" x="271.54" y="-870.16" font-family="sans-serif" font-size="11" text-anchor="middle">development feature?</text><text xml:space="preserve" x="271.54" y="-854.41" font-family="sans-serif" font-size="11" text-anchor="middle">(compile time)</text></g><g class="edge"><title>start-&gt;select</title><path fill="none" stroke="#475569" d="M271.54-975.02v31.75"/><path fill="#475569" stroke="#475569" d="m273.99-943.3-2.45 7-2.45-7z"/></g><g class="node"><title>platform</title><path fill="#dbeafe" stroke="#475569" d="M434.54-756.84 338-710.94l96.54 45.9 96.54-45.9z"/><text xml:space="preserve" x="434.54" y="-716.24" font-family="sans-serif" font-size="11" text-anchor="middle">Linux target?</text><text xml:space="preserve" x="434.54" y="-700.49" font-family="sans-serif" font-size="11" text-anchor="middle">(compile time)</text></g><g class="edge"><title>select-&gt;platform</title><path fill="none" stroke="#475569" stroke-dasharray="5,2" d="M313.94-830.17c25.94 25.43 58.8 57.64 83.66 82.02"/><path fill="#475569" stroke="#475569" d="m399.06-750.15 3.28 6.65-6.71-3.16z"/><text xml:space="preserve" x="374.39" y="-781.59" font-family="sans-serif" font-size="10" text-anchor="middle">No</text></g><g class="node"><title>cwd</title><path fill="#fff" stroke="#475569" d="M252.81-645.04H138.27v45.9h114.54z"/><text xml:space="preserve" x="195.54" y="-627.39" font-family="sans-serif" font-size="11" text-anchor="middle">Read current</text><text xml:space="preserve" x="195.54" y="-611.64" font-family="sans-serif" font-size="11" text-anchor="middle">working directory</text></g><g class="edge"><title>select-&gt;cwd</title><path fill="none" stroke="#475569" stroke-dasharray="5,2" d="M255.14-818.09c-15.39 50.35-37.86 123.87-50.35 164.74"/><path fill="#475569" stroke="#475569" d="m207.19-652.81-4.39 5.98-.3-7.41z"/><text xml:space="preserve" x="254.22" y="-781.59" font-family="sans-serif" font-size="10" text-anchor="middle">Yes</text></g><g class="node"><title>read_xdg</title><path fill="#fff" stroke="#475569" d="M507.93-579.14H361.14v36h146.79z"/><text xml:space="preserve" x="434.54" y="-558.56" font-family="sans-serif" font-size="11" text-anchor="middle">Read XDG_STATE_HOME</text></g><g class="edge"><title>platform-&gt;read_xdg</title><path fill="none" stroke="#475569" stroke-dasharray="5,2" d="M434.54-664.79v77"/><path fill="#475569" stroke="#475569" d="m436.99-587.85-2.45 7-2.45-7z"/><text xml:space="preserve" x="442.41" y="-619.71" font-family="sans-serif" font-size="10" text-anchor="middle">Yes</text></g><g class="node"><title>error</title><ellipse cx="551.54" cy="-21.32" fill="#fee2e2" stroke="#475569" rx="61.37" ry="21.32"/><text xml:space="preserve" x="551.54" y="-18.74" font-family="sans-serif" font-size="11" text-anchor="middle">Return error</text></g><g class="edge"><title>platform-&gt;error</title><path fill="none" stroke="#475569" stroke-dasharray="5,2" d="M469.96-681.79c53.97 42.88 150.58 119.65 150.58 119.65v456.55s-27.17 32.79-47.41 57.22"/><path fill="#475569" stroke="#475569" d="m575.21-47.05-6.35 3.83 2.58-6.95z"/><text xml:space="preserve" x="660.29" y="-367.21" font-family="sans-serif" font-size="10" text-anchor="middle">No: unsupported</text></g><g class="node"><title>cwd_ok</title><path fill="#fff" stroke="#475569" d="M123.54-259.84 0-229.69l123.54 30.15 123.54-30.15z"/><text xml:space="preserve" x="123.54" y="-227.11" font-family="sans-serif" font-size="11" text-anchor="middle">Lookup succeeded?</text></g><g class="edge"><title>cwd-&gt;cwd_ok</title><path fill="none" stroke="#475569" d="m190.09-598.86-18.55 75.72v154.55L135.76-265.8"/><path fill="#475569" stroke="#475569" d="m138.14-265.17-4.62 5.81-.01-7.42z"/></g><g class="node"><title>local</title><path fill="#fff" stroke="#475569" d="M161.19-124.59H39.89v36h121.3z"/><text xml:space="preserve" x="100.54" y="-104.01" font-family="sans-serif" font-size="11" text-anchor="middle">Append .local/state</text></g><g class="edge"><title>cwd_ok-&gt;local</title><path fill="none" stroke="#475569" d="M118.21-200.6c-3.87 20.33-9.04 47.59-12.79 67.34"/><path fill="#475569" stroke="#475569" d="m107.85-132.94-3.71 6.42-1.1-7.34z"/><text xml:space="preserve" x="118.54" y="-154.29" font-family="sans-serif" font-size="10" text-anchor="middle">Yes</text></g><g class="edge"><title>cwd_ok-&gt;error</title><path fill="none" stroke="#475569" d="M154.3-206.66c56.64 40.58 171.74 123.02 171.74 123.02s103.23 28.07 170 46.23"/><path fill="#475569" stroke="#475569" d="m496.42-39.85 6.11 4.2-7.4.53z"/><text xml:space="preserve" x="332.79" y="-104.21" font-family="sans-serif" font-size="10" text-anchor="middle">No</text></g><g class="node"><title>result</title><ellipse cx="302.54" cy="-21.32" fill="#dcfce7" stroke="#475569" rx="71.98" ry="21.32"/><text xml:space="preserve" x="302.54" y="-18.74" font-family="sans-serif" font-size="11" text-anchor="middle">Return PathBuf</text></g><g class="edge"><title>local-&gt;result</title><path fill="none" stroke="#475569" d="M142.89-88.13c32.48 13.39 77.34 31.88 111.25 45.86"/><path fill="#475569" stroke="#475569" d="m254.69-44.69 5.54 4.93-7.4-.4z"/></g><g class="node"><title>xdg</title><path fill="#fff" stroke="#475569" d="m434.54-502.14-98.79 30.15 98.79 30.15 98.79-30.15z"/><text xml:space="preserve" x="434.54" y="-469.41" font-family="sans-serif" font-size="11" text-anchor="middle">Absolute path?</text></g><g class="edge"><title>read_xdg-&gt;xdg</title><path fill="none" stroke="#475569" d="M434.54-542.92v32"/><path fill="#475569" stroke="#475569" d="m436.99-511.05-2.45 7-2.45-7z"/></g><g class="node"><title>use_xdg</title><path fill="#fff" stroke="#475569" d="M377.93-331.59H237.14v36h140.79z"/><text xml:space="preserve" x="307.54" y="-311.01" font-family="sans-serif" font-size="11" text-anchor="middle">Use XDG_STATE_HOME</text></g><g class="edge"><title>xdg-&gt;use_xdg</title><path fill="none" stroke="#475569" d="M413.77-448.2c-22.5 24.69-55.23 60.61-55.23 60.61s-19.24 27.54-34.08 48.79"/><path fill="#475569" stroke="#475569" d="m326.51-337.46-6.02 4.33 2-7.14z"/><text xml:space="preserve" x="396.33" y="-412.34" font-family="sans-serif" font-size="10" text-anchor="middle">Yes</text></g><g class="node"><title>home</title><path fill="#fff" stroke="#475569" d="M522.93-387.59H376.14v36h146.79z"/><text xml:space="preserve" x="449.54" y="-367.01" font-family="sans-serif" font-size="11" text-anchor="middle">Look up home directory</text></g><g class="edge"><title>xdg-&gt;home</title><path fill="none" stroke="#475569" d="M438.76-442.75c2.18 14.6 4.82 32.29 6.95 46.5"/><path fill="#475569" stroke="#475569" d="m448.12-396.69-1.39 7.28-3.46-6.56z"/><text xml:space="preserve" x="450.57" y="-412.34" font-family="sans-serif" font-size="10" text-anchor="middle">No</text></g><g class="edge"><title>use_xdg-&gt;result</title><path fill="none" stroke="#475569" d="M307.24-295.3c-.83 48.16-3.17 184.23-4.2 244.1"/><path fill="#475569" stroke="#475569" d="m305.49-51.41-2.57 6.96-2.33-7.04z"/></g><g class="node"><title>valid_home</title><path fill="#fff" stroke="#475569" d="m458.54-275.59-101.04 45.9 101.04 45.9 101.04-45.9z"/><text xml:space="preserve" x="458.54" y="-234.99" font-family="sans-serif" font-size="11" text-anchor="middle">Absolute home</text><text xml:space="preserve" x="458.54" y="-219.24" font-family="sans-serif" font-size="11" text-anchor="middle">path available?</text></g><g class="edge"><title>home-&gt;valid_home</title><path fill="none" stroke="#475569" d="M450.68-351.12c1.12 17.11 2.88 44.06 4.45 68.13"/><path fill="#475569" stroke="#475569" d="m457.56-283.27-1.99 7.14-2.9-6.82z"/></g><g class="node"><title>fallback</title><path fill="#fff" stroke="#475569" d="M479.18-129.54H357.89v45.9h121.29z"/><text xml:space="preserve" x="418.54" y="-111.89" font-family="sans-serif" font-size="11" text-anchor="middle">Append .local/state</text><text xml:space="preserve" x="418.54" y="-96.14" font-family="sans-serif" font-size="11" text-anchor="middle">to home path</text></g><g class="edge"><title>valid_home-&gt;fallback</title><path fill="none" stroke="#475569" d="M445.55-189.37c-5.55 16.82-11.94 36.14-17.1 51.78"/><path fill="#475569" stroke="#475569" d="m430.87-137.09-4.53 5.87-.13-7.41z"/><text xml:space="preserve" x="444.02" y="-154.29" font-family="sans-serif" font-size="10" text-anchor="middle">Yes</text></g><g class="edge"><title>valid_home-&gt;error</title><path fill="none" stroke="#475569" d="M475.38-191.32c18.33 40.67 47.2 104.74 63.63 141.19"/><path fill="#475569" stroke="#475569" d="m541.05-51.56.64 7.39-5.11-5.37z"/><text xml:space="preserve" x="530.31" y="-104.21" font-family="sans-serif" font-size="10" text-anchor="middle">No</text></g><g class="edge"><title>fallback-&gt;result</title><path fill="none" stroke="#475569" d="M387.45-83.27C371.6-71.89 352.3-58.04 336.1-46.41"/><path fill="#475569" stroke="#475569" d="m337.72-44.56-7.12 2.1 4.26-6.08z"/></g></g></svg>